HIERARCHY
ROOT joint_Root
{
	OFFSET 0.0 0.0 0.0
	CHANNELS 6 Xposition Yposition Zposition Zrotation Xrotation Yrotation 
	JOINT Hips
	{
		OFFSET -0.726466 93.3139 -2.00062
		CHANNELS 6 Xposition Yposition Zposition Zrotation Xrotation Yrotation 
		JOINT Spine
		{
			OFFSET 15.7357 0.0 0.0
			CHANNELS 6 Xposition Yposition Zposition Zrotation Xrotation Yrotation 
			JOINT Chest
			{
				OFFSET 8.98455 -0.406207 0.0
				CHANNELS 6 Xposition Yposition Zposition Zrotation Xrotation Yrotation 
				JOINT Neck
				{
					OFFSET 16.3773 0.0 0.0
					CHANNELS 6 Xposition Yposition Zposition Zrotation Xrotation Yrotation 
					JOINT Head
					{
						OFFSET 6.45672 0.0 0.0
						CHANNELS 6 Xposition Yposition Zposition Zrotation Xrotation Yrotation 
						End Site
						{
							OFFSET 0.0 0.0 0.0
						}
					}
				}
				JOINT Shoulder_L
				{
					OFFSET 12.9942 -0.242716 4.98039
					CHANNELS 6 Xposition Yposition Zposition Zrotation Xrotation Yrotation 
					JOINT UpperArm_L
					{
						OFFSET 5.34809 0.0 0.0
						CHANNELS 6 Xposition Yposition Zposition Zrotation Xrotation Yrotation 
						JOINT LowerArm_L
						{
							OFFSET 24.3286 1.87007e-05 0.0
							CHANNELS 6 Xposition Yposition Zposition Zrotation Xrotation Yrotation 
							JOINT Hand_L
							{
								OFFSET 22.2916 0.0 0.0
								CHANNELS 6 Xposition Yposition Zposition Zrotation Xrotation Yrotation 
								End Site
								{
									OFFSET 0.0 0.0 0.0
								}
							}
						}
					}
				}
				JOINT Shoulder_R
				{
					OFFSET 12.9945 -0.242716 -4.98039
					CHANNELS 6 Xposition Yposition Zposition Zrotation Xrotation Yrotation 
					JOINT UpperArm_R
					{
						OFFSET -5.34813 0.0 0.0
						CHANNELS 6 Xposition Yposition Zposition Zrotation Xrotation Yrotation 
						JOINT LowerArm_R
						{
							OFFSET -24.3289 0.000322201 0.0
							CHANNELS 6 Xposition Yposition Zposition Zrotation Xrotation Yrotation 
							JOINT Hand_R
							{
								OFFSET -22.2915 -0.000108084 0.0
								CHANNELS 6 Xposition Yposition Zposition Zrotation Xrotation Yrotation 
								End Site
								{
									OFFSET 0.0 0.0 0.0
								}
							}
						}
					}
				}
			}
		}
		JOINT UpperLeg_L
		{
			OFFSET -2.19248 -6.46944 0.0
			CHANNELS 6 Xposition Yposition Zposition Zrotation Xrotation Yrotation 
			JOINT LowerLeg_L
			{
				OFFSET 39.0811 0.0 -1.23785e-05
				CHANNELS 6 Xposition Yposition Zposition Zrotation Xrotation Yrotation 
				JOINT Foot_L
				{
					OFFSET 40.9854 0.0 -1.26872e-05
					CHANNELS 6 Xposition Yposition Zposition Zrotation Xrotation Yrotation 
					JOINT Toes_L
					{
						OFFSET 11.7543 0.0 0.0
						CHANNELS 6 Xposition Yposition Zposition Zrotation Xrotation Yrotation 
						End Site
						{
							OFFSET 0.0 0.0 0.0
						}
					}
				}
			}
		}
		JOINT UpperLeg_R
		{
			OFFSET -2.19251 6.46944 0.0
			CHANNELS 6 Xposition Yposition Zposition Zrotation Xrotation Yrotation 
			JOINT LowerLeg_R
			{
				OFFSET -39.0811 -0.00228153 -0.0401928
				CHANNELS 6 Xposition Yposition Zposition Zrotation Xrotation Yrotation 
				JOINT Foot_R
				{
					OFFSET -40.9854 0.0 0.0
					CHANNELS 6 Xposition Yposition Zposition Zrotation Xrotation Yrotation 
					JOINT Toes_R
					{
						OFFSET -11.7543 0.0 0.0
						CHANNELS 6 Xposition Yposition Zposition Zrotation Xrotation Yrotation 
						End Site
						{
							OFFSET 0.0 0.0 0.0
						}
					}
				}
			}
		}
	}
}
MOTION
Frames:	7
Frame Time:	0.0333333
0.000000 0.000000 0.000000 0.000000 0.000000 -0.000000 69.261000 88.710500 158.834000 -83.512100 26.616100 176.728000 15.735700 0.000005 -0.000001 71.806800 84.315600 -70.483600 8.984550 -0.406207 -0.000000 3.082720 -3.600000 2.741230 16.377300 -0.000001 -0.000001 3.511320 5.624220 1.614460 6.456720 -0.000001 -0.000000 5.006840 13.484900 -6.622700 12.994200 -0.242716 4.980390 -89.544500 -1.397180 -71.939300 5.348090 -0.000007 -0.000001 -56.451100 42.493100 -36.018400 24.328600 0.000019 0.000005 3.732430 3.206670 -49.386300 22.291600 -0.000001 0.000005 7.568510 5.570780 -9.727870 12.994500 -0.242716 -4.980390 87.356900 7.112970 -69.553900 -5.348130 -0.000001 -0.000004 -74.341400 24.315200 2.103860 -24.328900 0.000322 -0.000009 1.920530 18.768900 -5.953190 -22.291500 -0.000108 -0.000004 6.362920 5.300790 0.050082 -2.192480 -6.469440 -0.000000 -179.210000 -3.531660 11.473800 39.081100 -0.000007 -0.000012 0.000335 -0.000948 19.482400 40.985400 -0.000006 -0.000013 17.137200 13.935900 -74.888700 11.754300 -0.000000 0.000003 -0.801341 -0.971338 -25.004600 -2.192510 6.469440 -0.000001 -171.624000 15.620900 152.620000 -39.081100 -0.002282 -0.040193 -0.059600 0.265189 13.350200 -40.985400 0.000008 0.000006 -2.874990 9.117450 -59.891600 -11.754300 -0.000006 -0.000006 -0.023249 -0.184660 -24.124300
0.000000 0.000000 0.000000 0.000000 0.000000 -0.000000 72.173600 88.302100 155.517000 -82.071100 25.096400 175.742000 15.735700 0.000005 -0.000001 70.967900 84.526700 -68.914800 8.984550 -0.406207 -0.000000 2.655860 -3.658060 4.187870 16.377300 -0.000001 -0.000001 3.990690 5.359200 1.608140 6.456720 -0.000001 -0.000000 5.216090 13.497400 -7.181680 12.994200 -0.242716 4.980390 -89.826800 -0.539212 -72.192200 5.348090 -0.000007 -0.000001 -58.595200 41.931000 -33.109400 24.328600 0.000019 0.000005 3.568250 3.502340 -45.592000 22.291600 -0.000001 0.000005 7.595730 5.565970 -9.481890 12.994500 -0.242716 -4.980390 87.074800 7.755610 -69.260700 -5.348130 -0.000001 -0.000004 -72.239800 24.304900 0.988262 -24.328900 0.000322 -0.000009 2.320170 18.131100 -7.421730 -22.291500 -0.000108 -0.000004 7.392080 5.307920 -0.149841 -2.192480 -6.469440 -0.000000 -175.994000 -4.007570 11.918600 39.081100 -0.000007 -0.000012 -0.002801 0.006663 22.803200 40.985400 -0.000006 -0.000013 16.546500 16.611800 -74.335000 11.754300 -0.000000 0.000003 -0.039483 -0.258054 -27.175800 -2.192510 6.469440 -0.000001 -170.795000 10.750900 150.594000 -39.081100 -0.002282 -0.040193 0.048322 -0.138490 17.999500 -40.985400 0.000008 0.000006 1.660390 4.406410 -51.216200 -11.754300 -0.000006 -0.000006 -0.027713 -0.206786 -25.039400
0.000000 0.000000 0.000000 0.000000 0.000000 -0.000000 75.229300 87.993700 151.506000 -80.577900 22.570100 176.116000 15.735700 0.000005 -0.000001 68.570800 84.316300 -65.634300 8.984550 -0.406207 -0.000000 2.939150 -4.272680 5.978790 16.377300 -0.000001 -0.000001 4.248600 5.087710 1.397080 6.456720 -0.000001 -0.000000 5.735910 13.523600 -7.799600 12.994200 -0.242716 4.980390 -90.141500 0.448114 -72.463800 5.348090 -0.000007 -0.000001 -61.896200 41.083300 -29.115700 24.328600 0.000019 0.000005 3.776890 4.501700 -40.078000 22.291600 -0.000001 0.000005 7.231300 5.553460 -8.875620 12.994500 -0.242716 -4.980390 86.844300 8.231940 -68.940600 -5.348130 -0.000001 -0.000004 -69.926900 23.477700 -0.263403 -24.328900 0.000322 -0.000009 2.677950 16.753600 -9.221720 -22.291500 -0.000108 -0.000004 8.028390 5.318420 -0.449802 -2.192480 -6.469440 -0.000000 -172.302000 -3.698870 12.457200 39.081100 -0.000007 -0.000012 -0.005066 0.009547 27.952400 40.985400 -0.000006 -0.000013 15.195000 19.967700 -70.925100 11.754300 -0.000000 0.000003 -0.099437 -0.443170 -35.070700 -2.192510 6.469440 -0.000001 -171.877000 4.572170 150.726000 -39.081100 -0.002282 -0.040193 0.006966 -0.008099 24.274800 -40.985400 0.000008 0.000006 0.267301 -0.651656 -47.182700 -11.754300 -0.000006 -0.000006 -0.025063 -0.193871 -24.504900
0.000000 0.000000 0.000000 0.000000 0.000000 -0.000000 78.136200 87.801700 147.187000 -79.883900 20.696800 178.549000 15.735700 0.000005 -0.000001 69.988600 83.662000 -66.445500 8.984550 -0.406207 -0.000000 4.302470 -4.437800 7.248150 16.377300 -0.000001 -0.000001 4.201650 4.961220 1.287760 6.456720 -0.000001 -0.000000 6.195440 13.374100 -8.101540 12.994200 -0.242716 4.980390 -90.258700 0.835149 -72.787200 5.348090 -0.000007 -0.000001 -66.764700 39.372000 -24.530700 24.328600 0.000019 0.000005 3.934260 6.117640 -32.842300 22.291600 -0.000001 0.000005 7.406090 5.537100 -8.113340 12.994500 -0.242716 -4.980390 86.841600 8.215810 -68.886400 -5.348130 -0.000001 -0.000004 -67.940600 22.809500 -2.071990 -24.328900 0.000322 -0.000009 2.620430 14.491700 -10.369300 -22.291500 -0.000108 -0.000004 8.429270 5.328100 -0.730027 -2.192480 -6.469440 -0.000000 -169.665000 -2.989000 11.605600 39.081100 -0.000007 -0.000012 0.001909 -0.002527 37.038900 40.985400 -0.000006 -0.000013 10.626600 22.693700 -61.900700 11.754300 -0.000000 0.000003 -0.165978 -0.585362 -41.438900 -2.192510 6.469440 -0.000001 -171.887000 3.165420 152.840000 -39.081100 -0.002282 -0.040193 -0.035097 0.061302 32.059600 -40.985400 0.000008 0.000006 -0.575091 -3.838080 -53.055900 -11.754300 -0.000006 -0.000006 -0.014295 -0.133332 -22.012000
0.000000 0.000000 0.000000 0.000000 0.000000 -0.000000 80.640200 87.765300 143.496000 -79.843000 19.105700 -179.478000 15.735700 0.000005 -0.000001 72.200800 83.195000 -68.385500 8.984550 -0.406207 -0.000000 5.356680 -4.231140 7.822780 16.377300 -0.000001 -0.000001 3.803170 4.671430 1.572950 6.456720 -0.000001 -0.000000 6.318670 13.074700 -7.664310 12.994200 -0.242716 4.980390 -90.105500 0.348393 -73.152900 5.348090 -0.000007 -0.000001 -71.783800 36.578300 -20.602800 24.328600 0.000019 0.000005 3.942370 8.445860 -25.148400 22.291600 -0.000001 0.000005 7.413230 5.497740 -6.443690 12.994500 -0.242716 -4.980390 86.930500 8.080960 -69.119400 -5.348130 -0.000001 -0.000004 -66.234900 22.307200 -4.844180 -24.328900 0.000322 -0.000009 2.415610 12.956800 -10.659900 -22.291500 -0.000108 -0.000004 8.489920 5.332480 -0.858234 -2.192480 -6.469440 -0.000000 -168.543000 -1.081450 6.544310 39.081100 -0.000007 -0.000012 0.025467 -0.022099 49.046500 40.985400 -0.000006 -0.000013 1.284700 22.296700 -48.723400 11.754300 -0.000000 0.000003 -0.105618 -0.458297 -35.733200 -2.192510 6.469440 -0.000001 -171.448000 5.179210 155.628000 -39.081100 -0.002282 -0.040193 -0.103170 0.143379 36.593500 -40.985400 0.000008 0.000006 -0.361683 -3.498450 -58.688400 -11.754300 -0.000006 -0.000006 -0.009076 -0.096597 -20.507700
0.000000 0.000000 0.000000 0.000000 0.000000 -0.000000 82.713800 87.885100 140.529000 -80.450500 17.968900 -178.488000 15.735700 0.000005 -0.000001 76.306100 83.082100 -72.593500 8.984550 -0.406207 -0.000000 5.803050 -3.330490 7.587640 16.377300 -0.000001 -0.000001 3.259510 4.117240 2.049780 6.456720 -0.000001 -0.000000 5.986760 12.313200 -6.504480 12.994200 -0.242716 4.980390 -89.909200 -0.304618 -73.394800 5.348090 -0.000007 -0.000001 -73.930300 35.030800 -18.748000 24.328600 0.000019 0.000005 3.868320 11.560000 -18.657400 22.291600 -0.000001 0.000005 6.415150 5.439720 -4.261670 12.994500 -0.242716 -4.980390 86.927000 8.221690 -69.423400 -5.348130 -0.000001 -0.000004 -64.455400 21.971400 -8.349540 -24.328900 0.000322 -0.000009 2.405330 13.186200 -10.438000 -22.291500 -0.000108 -0.000004 9.053440 5.328970 -0.757095 -2.192480 -6.469440 -0.000000 -168.207000 0.517674 -0.988114 39.081100 -0.000007 -0.000012 0.149900 -0.089032 59.290900 40.985400 -0.000006 -0.000013 -12.389600 15.129800 -32.897200 11.754300 -0.000000 0.000003 -0.009449 -0.099482 -20.629400 -2.192510 6.469440 -0.000001 -171.555000 7.776450 157.909000 -39.081100 -0.002282 -0.040193 -0.155625 0.198432 38.688300 -40.985400 0.000008 0.000006 0.327881 -2.423420 -62.502900 -11.754300 -0.000006 -0.000006 -0.007324 -0.082425 -19.928900
0.000000 0.000000 0.000000 0.000000 0.000000 -0.000000 84.345900 88.521100 137.652000 -81.452700 18.002000 -178.015000 15.735700 0.000005 -0.000001 83.244200 83.148500 -79.885800 8.984550 -0.406207 -0.000000 5.901450 -1.662190 6.795480 16.377300 -0.000001 -0.000001 3.032210 3.836010 2.548190 6.456720 -0.000001 -0.000000 5.581050 11.125200 -5.371440 12.994200 -0.242716 4.980390 -89.764500 -0.772526 -73.047700 5.348090 -0.000007 -0.000001 -74.150400 34.407900 -17.335600 24.328600 0.000019 0.000005 4.485670 16.715000 -15.259900 22.291600 -0.000001 0.000005 3.962530 5.390210 -2.612800 12.994500 -0.242716 -4.980390 86.992000 8.381590 -70.175800 -5.348130 -0.000001 -0.000004 -62.436700 22.343700 -12.107000 -24.328900 0.000322 -0.000009 2.416760 13.562100 -10.207300 -22.291500 -0.000108 -0.000004 10.068800 5.319610 -0.485018 -2.192480 -6.469440 -0.000000 -169.203000 -0.932106 -7.033330 39.081100 -0.000007 -0.000012 0.188231 -0.079993 66.974500 40.985400 -0.000006 -0.000013 -9.414580 7.910280 -35.865000 11.754300 -0.000000 0.000003 -0.010378 -0.106449 -20.914300 -2.192510 6.469440 -0.000001 -172.355000 8.608690 161.056000 -39.081100 -0.002282 -0.040193 -0.179654 0.235862 37.797800 -40.985400 0.000008 0.000006 0.681266 -1.759910 -64.617200 -11.754300 -0.000006 -0.000006 -0.006250 -0.073090 -19.548000
